<mxfile host="app.diagrams.net" agent="Mozilla/5.0 (Windows NT 10.0; Win64; x64) AppleWebKit/537.36 (KHTML, like Gecko) Chrome/137.0.0.0 Safari/537.36" version="27.1.4">
  <diagram name="Page-1" id="tRypGCHuhZgqPp5vQ8EK">
    <mxGraphModel dx="3946" dy="2411" grid="1" gridSize="10" guides="1" tooltips="1" connect="1" arrows="1" fold="1" page="1" pageScale="1" pageWidth="850" pageHeight="1100" math="0" shadow="0">
      <root>
        <mxCell id="0" />
        <mxCell id="1" parent="0" />
        <mxCell id="ugFuR3aHlThDmgt0r0xD-1" value="" style="html=1;overflow=block;blockSpacing=1;whiteSpace=wrap;container=1;pointerEvents=0;collapsible=0;recursiveResize=0;fontSize=13;spacing=0;strokeOpacity=100;fillOpacity=0;rounded=1;absoluteArcSize=1;arcSize=12;fillColor=#000000;strokeWidth=1.5;lucidId=HqinuH2_mKaJ;" vertex="1" parent="1">
          <mxGeometry x="-826" y="-123" width="228" height="274" as="geometry" />
        </mxCell>
        <mxCell id="ugFuR3aHlThDmgt0r0xD-2" value="" style="html=1;overflow=block;blockSpacing=1;whiteSpace=wrap;container=1;pointerEvents=0;collapsible=0;recursiveResize=0;fontSize=13;spacing=0;strokeOpacity=100;fillOpacity=0;rounded=1;absoluteArcSize=1;arcSize=12;fillColor=#000000;strokeWidth=1.5;lucidId=HqineJLk6OhF;" vertex="1" parent="1">
          <mxGeometry x="-474" y="-99" width="240" height="208" as="geometry" />
        </mxCell>
        <mxCell id="ugFuR3aHlThDmgt0r0xD-3" value="" style="html=1;overflow=block;blockSpacing=1;whiteSpace=wrap;container=1;pointerEvents=0;collapsible=0;recursiveResize=0;fontSize=13;spacing=0;strokeOpacity=100;fillOpacity=0;rounded=1;absoluteArcSize=1;arcSize=12;fillColor=#000000;strokeWidth=1.5;lucidId=HqinR1p73Qxz;" vertex="1" parent="1">
          <mxGeometry x="-109" y="-129" width="228" height="280" as="geometry" />
        </mxCell>
        <mxCell id="ugFuR3aHlThDmgt0r0xD-4" value="" style="html=1;overflow=block;blockSpacing=1;whiteSpace=wrap;container=1;pointerEvents=0;collapsible=0;recursiveResize=0;fontSize=13;spacing=0;strokeOpacity=100;fillOpacity=0;rounded=1;absoluteArcSize=1;arcSize=12;fillColor=#000000;strokeWidth=4.5;lucidId=Hqin7N9xFNZi;" vertex="1" parent="1">
          <mxGeometry x="-871" y="-213" width="1020" height="810" as="geometry" />
        </mxCell>
        <mxCell id="ugFuR3aHlThDmgt0r0xD-5" value="" style="html=1;overflow=block;blockSpacing=1;whiteSpace=wrap;container=1;pointerEvents=0;collapsible=0;recursiveResize=0;fontSize=13;spacing=0;strokeOpacity=100;fillOpacity=0;rounded=1;absoluteArcSize=1;arcSize=12;fillColor=#000000;strokeWidth=3;lucidId=HqinZG8_ep2X;" vertex="1" parent="1">
          <mxGeometry x="-841" y="-168" width="255" height="630" as="geometry" />
        </mxCell>
        <mxCell id="ugFuR3aHlThDmgt0r0xD-6" value="" style="html=1;overflow=block;blockSpacing=1;whiteSpace=wrap;container=1;pointerEvents=0;collapsible=0;recursiveResize=0;fontSize=13;spacing=0;strokeOpacity=100;fillOpacity=0;rounded=1;absoluteArcSize=1;arcSize=12;fillColor=#000000;strokeWidth=4.5;lucidId=HqinQrovsxXV;" vertex="1" parent="1">
          <mxGeometry x="276" y="-205" width="983" height="473" as="geometry" />
        </mxCell>
        <mxCell id="ugFuR3aHlThDmgt0r0xD-7" value="" style="html=1;overflow=block;blockSpacing=1;whiteSpace=wrap;container=1;pointerEvents=0;collapsible=0;recursiveResize=0;fontSize=13;spacing=0;strokeOpacity=100;fillOpacity=0;rounded=1;absoluteArcSize=1;arcSize=12;fillColor=#000000;strokeWidth=4.5;lucidId=zrinnYGpXbdy;" vertex="1" parent="1">
          <mxGeometry x="1395" y="-201" width="645" height="468" as="geometry" />
        </mxCell>
        <mxCell id="ugFuR3aHlThDmgt0r0xD-8" value="" style="html=1;overflow=block;blockSpacing=1;whiteSpace=wrap;shape=image;fontSize=13;spacing=0;strokeColor=none;strokeOpacity=100;rounded=1;absoluteArcSize=1;arcSize=12;strokeWidth=0;image=https://images.lucid.app/images/d7685785-47bf-4a58-82cc-26feb8bda034/content;imageAspect=0;lucidId=HqinRarPJ5_D;" vertex="1" parent="1">
          <mxGeometry x="-776" y="177" width="124" height="124" as="geometry" />
        </mxCell>
        <mxCell id="ugFuR3aHlThDmgt0r0xD-9" value="Git Hub" style="html=1;overflow=block;blockSpacing=1;whiteSpace=wrap;fontSize=30;fontColor=#3a414a;align=left;spacing=3.8;strokeOpacity=100;fillOpacity=100;rounded=1;absoluteArcSize=1;arcSize=12;fillColor=#000000;strokeWidth=1.5;lucidId=Hqin.6TAsvn1;" vertex="1" parent="1">
          <mxGeometry x="-765" y="324" width="114" height="44" as="geometry" />
        </mxCell>
        <mxCell id="ugFuR3aHlThDmgt0r0xD-10" value="" style="html=1;overflow=block;blockSpacing=1;whiteSpace=wrap;shape=image;fontSize=13;spacing=0;strokeColor=none;strokeOpacity=100;rounded=1;absoluteArcSize=1;arcSize=12;strokeWidth=0;image=https://images.lucid.app/images/f15007f7-4885-4109-b029-964accafeb80/content;imageAspect=0;lucidId=HqincgXo0Htx;" vertex="1" parent="1">
          <mxGeometry x="-793" y="-93" width="169" height="169" as="geometry" />
        </mxCell>
        <mxCell id="ugFuR3aHlThDmgt0r0xD-11" value="&lt;div style=&quot;display: flex; justify-content: flex-start; text-align: left; align-items: baseline; font-size: 0; line-height: 1.25;margin-top: -2px;&quot;&gt;&lt;span&gt;&lt;span style=&quot;font-size:40px;color:#3a414a;&quot;&gt;HTTP&lt;/span&gt;&lt;/span&gt;&lt;/div&gt;" style="html=1;overflow=block;blockSpacing=1;whiteSpace=wrap;fontSize=13;spacing=3.8;strokeOpacity=100;fillOpacity=100;rounded=1;absoluteArcSize=1;arcSize=12;fillColor=#000000;strokeWidth=1.5;lucidId=Hqin9JphQAQJ;" vertex="1" parent="1">
          <mxGeometry x="-779" y="83" width="114" height="56" as="geometry" />
        </mxCell>
        <mxCell id="ugFuR3aHlThDmgt0r0xD-12" value="" style="html=1;overflow=block;blockSpacing=1;whiteSpace=wrap;shape=image;fontSize=13;spacing=0;strokeColor=none;strokeOpacity=100;rounded=1;absoluteArcSize=1;arcSize=12;strokeWidth=0;image=https://images.lucid.app/images/22851999-ecc2-4e5a-bdfa-10374918f266/content;imageAspect=0;lucidId=Hqin_HKPIkhs;" vertex="1" parent="1">
          <mxGeometry x="-466" y="-92" width="224" height="168" as="geometry" />
        </mxCell>
        <mxCell id="ugFuR3aHlThDmgt0r0xD-13" value="" style="html=1;overflow=block;blockSpacing=1;whiteSpace=wrap;shape=image;fontSize=13;spacing=0;strokeColor=none;strokeOpacity=100;rounded=1;absoluteArcSize=1;arcSize=12;strokeWidth=0;image=https://images.lucid.app/images/3c787341-0593-47cd-88d9-20f7ffcd4058/content;imageAspect=0;lucidId=Hqin6zSfS4ZM;" vertex="1" parent="1">
          <mxGeometry x="-84" y="-84" width="177" height="191" as="geometry" />
        </mxCell>
        <mxCell id="ugFuR3aHlThDmgt0r0xD-14" value="" style="html=1;jettySize=18;whiteSpace=wrap;fontSize=13;strokeColor=#3a414a;strokeOpacity=100;strokeWidth=0.8;rounded=1;arcSize=24;edgeStyle=orthogonalEdgeStyle;startArrow=none;endArrow=block;endFill=1;exitX=1;exitY=0.5;exitPerimeter=0;entryX=0;entryY=0.5;entryPerimeter=0;lucidId=Hqinc~rDHgZ~;" edge="1" parent="1" source="ugFuR3aHlThDmgt0r0xD-2" target="ugFuR3aHlThDmgt0r0xD-3">
          <mxGeometry width="100" height="100" relative="1" as="geometry">
            <Array as="points" />
          </mxGeometry>
        </mxCell>
        <mxCell id="ugFuR3aHlThDmgt0r0xD-15" value="Source" style="html=1;overflow=block;blockSpacing=1;whiteSpace=wrap;fontSize=50;fontFamily=Gentium Basic;fontColor=#3a414a;align=center;spacing=3.8;strokeOpacity=100;fillOpacity=100;rounded=1;absoluteArcSize=1;arcSize=12;fillColor=#ffffff;strokeWidth=1.5;lucidId=HqinSpCTlt17;" vertex="1" parent="1">
          <mxGeometry x="-811" y="477" width="210" height="90" as="geometry" />
        </mxCell>
        <mxCell id="ugFuR3aHlThDmgt0r0xD-16" value="" style="html=1;jettySize=18;whiteSpace=wrap;fontSize=13;strokeColor=#3a414a;strokeOpacity=100;strokeWidth=0.8;rounded=1;arcSize=24;edgeStyle=orthogonalEdgeStyle;startArrow=none;endArrow=block;endFill=1;exitX=1;exitY=0.5;exitPerimeter=0;entryX=0;entryY=0.65;entryPerimeter=0;lucidId=HqinURaZxVxt;" edge="1" parent="1" source="ugFuR3aHlThDmgt0r0xD-1" target="ugFuR3aHlThDmgt0r0xD-12">
          <mxGeometry width="100" height="100" relative="1" as="geometry">
            <Array as="points" />
          </mxGeometry>
        </mxCell>
        <mxCell id="ugFuR3aHlThDmgt0r0xD-17" value="Azure Data Factory" style="html=1;overflow=block;blockSpacing=1;whiteSpace=wrap;fontSize=40;fontColor=#3a414a;align=left;spacing=3.8;strokeOpacity=100;fillOpacity=100;rounded=1;absoluteArcSize=1;arcSize=12;fillColor=#000000;strokeWidth=1.5;lucidId=HqinxvFPE8OM;" vertex="1" parent="1">
          <mxGeometry x="-511" y="122" width="371" height="56" as="geometry" />
        </mxCell>
        <mxCell id="ugFuR3aHlThDmgt0r0xD-18" value="ADLS" style="html=1;overflow=block;blockSpacing=1;whiteSpace=wrap;fontSize=40;fontColor=#3a414a;align=left;spacing=3.8;strokeOpacity=100;fillOpacity=100;rounded=1;absoluteArcSize=1;arcSize=12;fillColor=#000000;strokeWidth=1.5;lucidId=Hqin_~kgZr2y;" vertex="1" parent="1">
          <mxGeometry x="-46" y="162" width="154" height="75" as="geometry" />
        </mxCell>
        <mxCell id="ugFuR3aHlThDmgt0r0xD-19" value="" style="html=1;overflow=block;blockSpacing=1;whiteSpace=wrap;fontSize=13;spacing=3.8;strokeOpacity=100;fillOpacity=100;rounded=1;absoluteArcSize=1;arcSize=12;fillColor=#ffffff;strokeWidth=4.5;lucidId=Hqin.L18P7-Q;" vertex="1" parent="1">
          <mxGeometry x="373" y="-83" width="103" height="134" as="geometry" />
        </mxCell>
        <mxCell id="ugFuR3aHlThDmgt0r0xD-20" value="" style="html=1;overflow=block;blockSpacing=1;whiteSpace=wrap;fontSize=13;spacing=3.8;strokeOpacity=100;fillOpacity=100;rounded=1;absoluteArcSize=1;arcSize=12;fillColor=#ffffff;strokeWidth=4.5;lucidId=HqingmwdaBGW;" vertex="1" parent="1">
          <mxGeometry x="358" y="-68" width="103" height="134" as="geometry" />
        </mxCell>
        <mxCell id="ugFuR3aHlThDmgt0r0xD-21" value="" style="html=1;overflow=block;blockSpacing=1;whiteSpace=wrap;fontSize=13;spacing=3.8;strokeOpacity=100;fillOpacity=100;rounded=1;absoluteArcSize=1;arcSize=12;fillColor=#ffffff;strokeWidth=4.5;lucidId=HqinZWiBSn.8;" vertex="1" parent="1">
          <mxGeometry x="343" y="-53" width="103" height="134" as="geometry" />
        </mxCell>
        <mxCell id="ugFuR3aHlThDmgt0r0xD-22" value="Raw" style="html=1;overflow=block;blockSpacing=1;whiteSpace=wrap;fontSize=40;fontColor=#3a414a;align=left;spacing=3.8;strokeOpacity=100;fillOpacity=100;rounded=1;absoluteArcSize=1;arcSize=12;fillColor=#000000;strokeWidth=1.5;lucidId=HqinGNjUQf.y;" vertex="1" parent="1">
          <mxGeometry x="348" y="87" width="154" height="75" as="geometry" />
        </mxCell>
        <mxCell id="ugFuR3aHlThDmgt0r0xD-23" value="Refined" style="html=1;overflow=block;blockSpacing=1;whiteSpace=wrap;fontSize=40;fontColor=#3a414a;align=left;spacing=3.8;strokeOpacity=100;fillOpacity=100;rounded=1;absoluteArcSize=1;arcSize=12;fillColor=#000000;strokeWidth=1.5;lucidId=HqinzRY.vHqc;" vertex="1" parent="1">
          <mxGeometry x="599" y="81" width="154" height="75" as="geometry" />
        </mxCell>
        <mxCell id="ugFuR3aHlThDmgt0r0xD-24" value="Reporting" style="html=1;overflow=block;blockSpacing=1;whiteSpace=wrap;fontSize=40;fontColor=#3a414a;align=left;spacing=3.8;strokeOpacity=100;fillOpacity=100;rounded=1;absoluteArcSize=1;arcSize=12;fillColor=#000000;strokeWidth=1.5;lucidId=HqinIxSLxRqM;" vertex="1" parent="1">
          <mxGeometry x="825" y="76" width="191" height="75" as="geometry" />
        </mxCell>
        <mxCell id="ugFuR3aHlThDmgt0r0xD-25" value="" style="html=1;overflow=block;blockSpacing=1;whiteSpace=wrap;fontSize=13;spacing=0;strokeOpacity=100;fillOpacity=100;rounded=1;absoluteArcSize=1;arcSize=12;fillColor=#ffffff;strokeWidth=4.5;lucidId=HqiniD.46Asu;" vertex="1" parent="1">
          <mxGeometry x="358" y="37" width="73" height="5" as="geometry" />
        </mxCell>
        <mxCell id="ugFuR3aHlThDmgt0r0xD-26" value="" style="html=1;overflow=block;blockSpacing=1;whiteSpace=wrap;fontSize=13;spacing=0;strokeOpacity=100;fillOpacity=100;rounded=1;absoluteArcSize=1;arcSize=12;fillColor=#ffffff;strokeWidth=4.5;lucidId=Hqin5MxpmkO5;" vertex="1" parent="1">
          <mxGeometry x="358" y="-39" width="73" height="5" as="geometry" />
        </mxCell>
        <mxCell id="ugFuR3aHlThDmgt0r0xD-27" value="" style="html=1;overflow=block;blockSpacing=1;whiteSpace=wrap;fontSize=13;spacing=0;strokeOpacity=100;fillOpacity=100;rounded=1;absoluteArcSize=1;arcSize=12;fillColor=#ffffff;strokeWidth=4.5;lucidId=HqinCOt7LYxx;" vertex="1" parent="1">
          <mxGeometry x="358" y="-14" width="73" height="5" as="geometry" />
        </mxCell>
        <mxCell id="ugFuR3aHlThDmgt0r0xD-28" value="" style="html=1;overflow=block;blockSpacing=1;whiteSpace=wrap;fontSize=13;spacing=0;strokeOpacity=100;fillOpacity=100;rounded=1;absoluteArcSize=1;arcSize=12;fillColor=#ffffff;strokeWidth=4.5;lucidId=Hqin77QJO8D~;" vertex="1" parent="1">
          <mxGeometry x="358" y="12" width="73" height="5" as="geometry" />
        </mxCell>
        <mxCell id="ugFuR3aHlThDmgt0r0xD-29" value="" style="html=1;overflow=block;blockSpacing=1;whiteSpace=wrap;fontSize=13;spacing=0;strokeOpacity=100;fillOpacity=100;rounded=1;absoluteArcSize=1;arcSize=12;fillColor=#ffffff;strokeWidth=4.5;lucidId=HqinlZwaW6.7;" vertex="1" parent="1">
          <mxGeometry x="358" y="62" width="70" height="5" as="geometry" />
        </mxCell>
        <mxCell id="ugFuR3aHlThDmgt0r0xD-30" value="" style="html=1;overflow=block;blockSpacing=1;whiteSpace=wrap;fontSize=13;spacing=3.8;strokeOpacity=100;fillOpacity=100;rounded=1;absoluteArcSize=1;arcSize=12;fillColor=#ffffff;strokeWidth=4.5;lucidId=HqinlNpv6gml;" vertex="1" parent="1">
          <mxGeometry x="629" y="-85" width="103" height="134" as="geometry" />
        </mxCell>
        <mxCell id="ugFuR3aHlThDmgt0r0xD-31" value="" style="html=1;overflow=block;blockSpacing=1;whiteSpace=wrap;fontSize=13;spacing=3.8;strokeOpacity=100;fillOpacity=100;rounded=1;absoluteArcSize=1;arcSize=12;fillColor=#ffffff;strokeWidth=4.5;lucidId=Hqinuvy9~rPB;" vertex="1" parent="1">
          <mxGeometry x="614" y="-70" width="103" height="134" as="geometry" />
        </mxCell>
        <mxCell id="ugFuR3aHlThDmgt0r0xD-32" value="" style="html=1;overflow=block;blockSpacing=1;whiteSpace=wrap;fontSize=13;spacing=3.8;strokeOpacity=100;fillOpacity=100;rounded=1;absoluteArcSize=1;arcSize=12;fillColor=#ffffff;strokeWidth=4.5;lucidId=HqinZHPdLgsB;" vertex="1" parent="1">
          <mxGeometry x="599" y="-55" width="103" height="134" as="geometry" />
        </mxCell>
        <mxCell id="ugFuR3aHlThDmgt0r0xD-33" value="" style="html=1;overflow=block;blockSpacing=1;whiteSpace=wrap;fontSize=13;spacing=0;strokeOpacity=100;fillOpacity=100;rounded=1;absoluteArcSize=1;arcSize=12;fillColor=#ffffff;strokeWidth=4.5;lucidId=Hqino_.bCuXX;" vertex="1" parent="1">
          <mxGeometry x="614" y="35" width="73" height="5" as="geometry" />
        </mxCell>
        <mxCell id="ugFuR3aHlThDmgt0r0xD-34" value="" style="html=1;overflow=block;blockSpacing=1;whiteSpace=wrap;fontSize=13;spacing=0;strokeOpacity=100;fillOpacity=100;rounded=1;absoluteArcSize=1;arcSize=12;fillColor=#ffffff;strokeWidth=4.5;lucidId=HqinaMe9pw3_;" vertex="1" parent="1">
          <mxGeometry x="614" y="-40" width="73" height="5" as="geometry" />
        </mxCell>
        <mxCell id="ugFuR3aHlThDmgt0r0xD-35" value="" style="html=1;overflow=block;blockSpacing=1;whiteSpace=wrap;fontSize=13;spacing=0;strokeOpacity=100;fillOpacity=100;rounded=1;absoluteArcSize=1;arcSize=12;fillColor=#ffffff;strokeWidth=4.5;lucidId=HqinZUV3SyYF;" vertex="1" parent="1">
          <mxGeometry x="614" y="-15" width="73" height="5" as="geometry" />
        </mxCell>
        <mxCell id="ugFuR3aHlThDmgt0r0xD-36" value="" style="html=1;overflow=block;blockSpacing=1;whiteSpace=wrap;fontSize=13;spacing=0;strokeOpacity=100;fillOpacity=100;rounded=1;absoluteArcSize=1;arcSize=12;fillColor=#ffffff;strokeWidth=4.5;lucidId=HqinHZUS3vDb;" vertex="1" parent="1">
          <mxGeometry x="614" y="10" width="73" height="5" as="geometry" />
        </mxCell>
        <mxCell id="ugFuR3aHlThDmgt0r0xD-37" value="" style="html=1;overflow=block;blockSpacing=1;whiteSpace=wrap;fontSize=13;spacing=0;strokeOpacity=100;fillOpacity=100;rounded=1;absoluteArcSize=1;arcSize=12;fillColor=#ffffff;strokeWidth=4.5;lucidId=HqinPn~mq1qW;" vertex="1" parent="1">
          <mxGeometry x="614" y="60" width="70" height="5" as="geometry" />
        </mxCell>
        <mxCell id="ugFuR3aHlThDmgt0r0xD-38" value="" style="html=1;overflow=block;blockSpacing=1;whiteSpace=wrap;fontSize=13;spacing=3.8;strokeOpacity=100;fillOpacity=100;rounded=1;absoluteArcSize=1;arcSize=12;fillColor=#ffffff;strokeWidth=4.5;lucidId=HqinjIp0Hbza;" vertex="1" parent="1">
          <mxGeometry x="884" y="-91" width="103" height="134" as="geometry" />
        </mxCell>
        <mxCell id="ugFuR3aHlThDmgt0r0xD-39" value="" style="html=1;overflow=block;blockSpacing=1;whiteSpace=wrap;fontSize=13;spacing=3.8;strokeOpacity=100;fillOpacity=100;rounded=1;absoluteArcSize=1;arcSize=12;fillColor=#ffffff;strokeWidth=4.5;lucidId=HqinCaZ5JFx3;" vertex="1" parent="1">
          <mxGeometry x="869" y="-76" width="103" height="134" as="geometry" />
        </mxCell>
        <mxCell id="ugFuR3aHlThDmgt0r0xD-40" value="" style="html=1;overflow=block;blockSpacing=1;whiteSpace=wrap;fontSize=13;spacing=3.8;strokeOpacity=100;fillOpacity=100;rounded=1;absoluteArcSize=1;arcSize=12;fillColor=#ffffff;strokeWidth=4.5;lucidId=HqingA4WvyZt;" vertex="1" parent="1">
          <mxGeometry x="854" y="-60" width="103" height="134" as="geometry" />
        </mxCell>
        <mxCell id="ugFuR3aHlThDmgt0r0xD-41" value="" style="html=1;overflow=block;blockSpacing=1;whiteSpace=wrap;fontSize=13;spacing=0;strokeOpacity=100;fillOpacity=100;rounded=1;absoluteArcSize=1;arcSize=12;fillColor=#ffffff;strokeWidth=4.5;lucidId=HqinAYMBxxRg;" vertex="1" parent="1">
          <mxGeometry x="869" y="30" width="73" height="5" as="geometry" />
        </mxCell>
        <mxCell id="ugFuR3aHlThDmgt0r0xD-42" value="" style="html=1;overflow=block;blockSpacing=1;whiteSpace=wrap;fontSize=13;spacing=0;strokeOpacity=100;fillOpacity=100;rounded=1;absoluteArcSize=1;arcSize=12;fillColor=#ffffff;strokeWidth=4.5;lucidId=Hqins7QOY0Rx;" vertex="1" parent="1">
          <mxGeometry x="869" y="-46" width="73" height="5" as="geometry" />
        </mxCell>
        <mxCell id="ugFuR3aHlThDmgt0r0xD-43" value="" style="html=1;overflow=block;blockSpacing=1;whiteSpace=wrap;fontSize=13;spacing=0;strokeOpacity=100;fillOpacity=100;rounded=1;absoluteArcSize=1;arcSize=12;fillColor=#ffffff;strokeWidth=4.5;lucidId=HqinNqh0fiwe;" vertex="1" parent="1">
          <mxGeometry x="869" y="-21" width="73" height="5" as="geometry" />
        </mxCell>
        <mxCell id="ugFuR3aHlThDmgt0r0xD-44" value="" style="html=1;overflow=block;blockSpacing=1;whiteSpace=wrap;fontSize=13;spacing=0;strokeOpacity=100;fillOpacity=100;rounded=1;absoluteArcSize=1;arcSize=12;fillColor=#ffffff;strokeWidth=4.5;lucidId=HqinAyqKaFSl;" vertex="1" parent="1">
          <mxGeometry x="869" y="4" width="73" height="5" as="geometry" />
        </mxCell>
        <mxCell id="ugFuR3aHlThDmgt0r0xD-45" value="" style="html=1;overflow=block;blockSpacing=1;whiteSpace=wrap;fontSize=13;spacing=0;strokeOpacity=100;fillOpacity=100;rounded=1;absoluteArcSize=1;arcSize=12;fillColor=#ffffff;strokeWidth=4.5;lucidId=Hqinspz717KC;" vertex="1" parent="1">
          <mxGeometry x="869" y="55" width="70" height="5" as="geometry" />
        </mxCell>
        <mxCell id="ugFuR3aHlThDmgt0r0xD-46" value="" style="html=1;overflow=block;blockSpacing=1;whiteSpace=wrap;ellipse;fontSize=13;spacing=3.8;strokeOpacity=100;fillOpacity=100;rounded=1;absoluteArcSize=1;arcSize=12;fillColor=#ffffff;strokeWidth=2.3;lucidId=HqinHg9raWAd;" vertex="1" parent="1">
          <mxGeometry x="989" y="-346" width="344" height="323" as="geometry" />
        </mxCell>
        <mxCell id="ugFuR3aHlThDmgt0r0xD-47" value="" style="html=1;overflow=block;blockSpacing=1;whiteSpace=wrap;shape=image;fontSize=13;spacing=0;strokeColor=none;strokeOpacity=100;rounded=1;absoluteArcSize=1;arcSize=12;strokeWidth=0;image=https://images.lucid.app/images/207c4069-121f-4a91-bbf2-1706af0bf9e6/content;imageAspect=0;lucidId=Hqin~NOXF9mP;" vertex="1" parent="1">
          <mxGeometry x="1049" y="-295" width="221" height="220" as="geometry" />
        </mxCell>
        <mxCell id="ugFuR3aHlThDmgt0r0xD-48" value="Snowflake" style="html=1;overflow=block;blockSpacing=1;whiteSpace=wrap;fontSize=40;fontColor=#3a414a;align=left;spacing=3.8;strokeOpacity=100;fillOpacity=100;rounded=1;absoluteArcSize=1;arcSize=12;fillColor=#000000;strokeWidth=1.5;lucidId=Hqinuz0e_2of;" vertex="1" parent="1">
          <mxGeometry x="1049" y="-23" width="204" height="75" as="geometry" />
        </mxCell>
        <mxCell id="ugFuR3aHlThDmgt0r0xD-49" value="EDA and Predictions" style="html=1;overflow=block;blockSpacing=1;whiteSpace=wrap;fontSize=50;align=left;spacing=3.8;strokeOpacity=100;fillOpacity=100;rounded=1;absoluteArcSize=1;arcSize=9;fillColor=#ffffff;strokeWidth=4.5;lucidId=huing9BwDIha;" vertex="1" parent="1">
          <mxGeometry x="1395" y="-315" width="488" height="88" as="geometry" />
        </mxCell>
        <mxCell id="ugFuR3aHlThDmgt0r0xD-50" value="" style="html=1;overflow=block;blockSpacing=1;whiteSpace=wrap;shape=image;fontSize=13;spacing=0;strokeColor=none;strokeOpacity=100;rounded=1;absoluteArcSize=1;arcSize=12;strokeWidth=0;image=https://images.lucid.app/images/988ba573-0bf3-44b1-89dd-7e8e5e330b2f/content;imageAspect=0;lucidId=2uinld5a5_Y2;" vertex="1" parent="1">
          <mxGeometry x="1905" y="-268" width="247" height="284" as="geometry" />
        </mxCell>
        <mxCell id="ugFuR3aHlThDmgt0r0xD-51" value="&lt;div style=&quot;display: flex; justify-content: flex-start; text-align: left; align-items: baseline; font-size: 0; line-height: 1.25;margin-top: -2px;&quot;&gt;&lt;span&gt;&lt;span style=&quot;font-size:40px;color:#3a414a;&quot;&gt;EDA and Predictions&#xa;&lt;/span&gt;&lt;/span&gt;&lt;/div&gt;&lt;div style=&quot;display: flex; justify-content: flex-start; text-align: left; align-items: baseline; font-size: 0; line-height: 1.25;margin-top: -2px;&quot;&gt;&lt;span&gt;&lt;/span&gt;&lt;/div&gt;" style="html=1;overflow=block;blockSpacing=1;whiteSpace=wrap;fontSize=13;spacing=3.8;strokeOpacity=100;fillOpacity=100;rounded=1;absoluteArcSize=1;arcSize=12;fillColor=#000000;strokeWidth=1.5;lucidId=lvinaz~FpbbD;" vertex="1" parent="1">
          <mxGeometry x="1485" y="83" width="465" height="143" as="geometry" />
        </mxCell>
        <mxCell id="ugFuR3aHlThDmgt0r0xD-52" value="" style="html=1;overflow=block;blockSpacing=1;whiteSpace=wrap;fontSize=13;spacing=3.8;strokeOpacity=100;fillOpacity=100;rounded=1;absoluteArcSize=1;arcSize=12;fillColor=#ffffff;strokeWidth=4.5;lucidId=lvinlDAO1zLl;" vertex="1" parent="1">
          <mxGeometry x="1601" y="-129" width="140" height="159" as="geometry" />
        </mxCell>
        <mxCell id="ugFuR3aHlThDmgt0r0xD-53" value="" style="html=1;overflow=block;blockSpacing=1;whiteSpace=wrap;fontSize=13;spacing=3.8;strokeOpacity=100;fillOpacity=100;rounded=1;absoluteArcSize=1;arcSize=12;fillColor=#ffffff;strokeWidth=4.5;lucidId=lvinfwFLhnHt;" vertex="1" parent="1">
          <mxGeometry x="1580" y="-111" width="140" height="159" as="geometry" />
        </mxCell>
        <mxCell id="ugFuR3aHlThDmgt0r0xD-54" value="" style="html=1;overflow=block;blockSpacing=1;whiteSpace=wrap;fontSize=13;spacing=3.8;strokeOpacity=100;fillOpacity=100;rounded=1;absoluteArcSize=1;arcSize=12;fillColor=#ffffff;strokeWidth=4.5;lucidId=lvinDLRuincf;" vertex="1" parent="1">
          <mxGeometry x="1560" y="-93" width="140" height="159" as="geometry" />
        </mxCell>
        <mxCell id="ugFuR3aHlThDmgt0r0xD-55" value="" style="html=1;overflow=block;blockSpacing=1;whiteSpace=wrap;fontSize=13;spacing=0;strokeOpacity=100;fillOpacity=100;rounded=1;absoluteArcSize=1;arcSize=12;fillColor=#ffffff;strokeWidth=4.5;lucidId=lvin1V~rfoMC;" vertex="1" parent="1">
          <mxGeometry x="1580" y="14" width="100" height="5" as="geometry" />
        </mxCell>
        <mxCell id="ugFuR3aHlThDmgt0r0xD-56" value="" style="html=1;overflow=block;blockSpacing=1;whiteSpace=wrap;fontSize=13;spacing=0;strokeOpacity=100;fillOpacity=100;rounded=1;absoluteArcSize=1;arcSize=12;fillColor=#ffffff;strokeWidth=4.5;lucidId=lvinw8r7wFlK;" vertex="1" parent="1">
          <mxGeometry x="1580" y="-76" width="100" height="5" as="geometry" />
        </mxCell>
        <mxCell id="ugFuR3aHlThDmgt0r0xD-57" value="" style="html=1;overflow=block;blockSpacing=1;whiteSpace=wrap;fontSize=13;spacing=0;strokeOpacity=100;fillOpacity=100;rounded=1;absoluteArcSize=1;arcSize=12;fillColor=#ffffff;strokeWidth=4.5;lucidId=lvinMGz99zmk;" vertex="1" parent="1">
          <mxGeometry x="1580" y="-46" width="100" height="5" as="geometry" />
        </mxCell>
        <mxCell id="ugFuR3aHlThDmgt0r0xD-58" value="" style="html=1;overflow=block;blockSpacing=1;whiteSpace=wrap;fontSize=13;spacing=0;strokeOpacity=100;fillOpacity=100;rounded=1;absoluteArcSize=1;arcSize=12;fillColor=#ffffff;strokeWidth=4.5;lucidId=lvinwyIYQ8Yd;" vertex="1" parent="1">
          <mxGeometry x="1580" y="-16" width="100" height="5" as="geometry" />
        </mxCell>
        <mxCell id="ugFuR3aHlThDmgt0r0xD-59" value="" style="html=1;overflow=block;blockSpacing=1;whiteSpace=wrap;fontSize=13;spacing=0;strokeOpacity=100;fillOpacity=100;rounded=1;absoluteArcSize=1;arcSize=12;fillColor=#ffffff;strokeWidth=4.5;lucidId=lvinsAy3oS54;" vertex="1" parent="1">
          <mxGeometry x="1580" y="44" width="95" height="5" as="geometry" />
        </mxCell>
        <mxCell id="ugFuR3aHlThDmgt0r0xD-60" value="Snowflake Notebook" style="html=1;overflow=block;blockSpacing=1;whiteSpace=wrap;fontSize=40;fontColor=#3a414a;align=left;spacing=3.8;strokeOpacity=100;fillOpacity=100;rounded=1;absoluteArcSize=1;arcSize=12;fillColor=#000000;strokeWidth=1.5;lucidId=PwinefGanPW3;" vertex="1" parent="1">
          <mxGeometry x="1935" y="30" width="204" height="114" as="geometry" />
        </mxCell>
      </root>
    </mxGraphModel>
  </diagram>
</mxfile>
